<svg width="49" height="49" viewBox="0 0 49 49" fill="none" xmlns="http://www.w3.org/2000/svg">
<path d="M16.8176 28.0622C16.9565 27.9224 17.0666 27.7567 17.1415 27.5745C17.2164 27.3922 17.2546 27.197 17.2541 26.9999C17.2535 26.8029 17.2141 26.6079 17.1382 26.426C17.0623 26.2442 16.9513 26.0791 16.8116 25.9402C16.6719 25.8012 16.5061 25.6912 16.3239 25.6163C16.1416 25.5414 15.9464 25.5031 15.7493 25.5037C15.5523 25.5042 15.3573 25.5436 15.1754 25.6195C14.9936 25.6955 14.8285 25.8064 14.6896 25.9462L16.8176 28.0622ZM28.1976 34.5002L26.7376 34.1522V34.1622L28.1976 34.5002ZM18.3096 19.7262C18.2557 19.9157 18.2397 20.1139 18.2625 20.3096C18.2853 20.5053 18.3464 20.6945 18.4423 20.8666C18.5382 21.0387 18.6671 21.1902 18.8216 21.3124C18.976 21.4347 19.1531 21.5253 19.3426 21.5792C19.5321 21.633 19.7303 21.649 19.926 21.6262C20.1217 21.6035 20.311 21.5424 20.483 21.4464C20.6551 21.3505 20.8066 21.2216 20.9288 21.0672C21.0511 20.9127 21.1417 20.7357 21.1956 20.5462L18.3096 19.7262ZM31.2996 8.60418L35.6036 11.1962L37.1516 8.62618L32.8476 6.03418L31.2996 8.60418ZM17.4396 40.6642L16.1096 39.8642L14.5616 42.4342L15.8916 43.2362L17.4396 40.6642ZM26.6536 34.5242L26.1576 36.7162L29.0836 37.3782L29.5796 35.1902L26.6536 34.5242ZM14.9796 29.8682L16.5496 28.3262L14.4456 26.1882L12.8776 27.7302L14.9796 29.8682ZM26.6696 11.6462L32.7336 8.66418L31.4116 5.97218L25.3476 8.95218L26.6696 11.6462ZM34.8816 10.0302L35.4416 17.0002L38.4296 16.7602L37.8716 9.79218L34.8816 10.0302ZM33.3856 8.04418L34.2376 6.50418L31.6136 5.05018L30.7596 6.59218L33.3856 8.04418ZM34.3776 6.46418L35.9376 7.40618L37.4856 4.83618L35.9256 3.89618L34.3776 6.46418ZM35.9736 7.54018L35.0636 9.18418L37.6896 10.6382L38.5996 8.99218L35.9736 7.54018ZM35.4396 17.0002L35.4676 17.3522L38.4616 17.1642L38.4296 16.7642L35.4396 17.0002ZM34.2516 27.2502C34.3876 27.1302 34.4696 27.0602 34.5456 26.9902L32.5256 24.7702L32.2696 24.9982L34.2516 27.2502ZM35.4676 17.3522C35.6476 20.1902 34.5476 22.9282 32.5256 24.7702L34.5456 26.9902C37.2616 24.5142 38.6976 20.8822 38.4616 17.1642L35.4676 17.3522ZM21.6516 18.4942L21.7116 18.1482L18.7656 17.5922C18.7456 17.6962 18.7256 17.8042 18.6956 17.9862L21.6516 18.4942ZM25.3476 8.95218C25.1876 9.03018 25.0896 9.07818 24.9976 9.12618L26.3676 11.7962L26.6696 11.6462L25.3476 8.95218ZM21.7136 18.1502C22.2376 15.3682 23.9696 13.0282 26.3676 11.7962L24.9976 9.12618C21.7456 10.7962 19.4536 13.9342 18.7656 17.5922L21.7136 18.1502ZM16.5496 28.3262L16.8176 28.0602L14.6896 25.9442L14.4456 26.1882L16.5496 28.3262ZM18.6936 17.9862C18.6742 18.1023 18.6542 18.2183 18.6336 18.3342L21.5836 18.8742C21.6036 18.7742 21.6196 18.6742 21.6496 18.4942L18.6936 17.9862ZM29.5776 35.1882L29.6316 34.9482L29.6516 34.8682L29.6556 34.8462V34.8382L28.1956 34.4982L26.7356 34.1582V34.1622L26.7336 34.1682C26.7316 34.1755 26.7296 34.1828 26.7276 34.1902L26.7076 34.2742L26.6516 34.5262L29.5776 35.1882ZM32.2696 24.9982L31.9856 25.2482L33.9936 27.4762L34.2516 27.2502L32.2696 24.9982ZM16.1076 39.8642C14.8456 39.1042 13.9676 38.5742 13.3176 38.1162C12.6736 37.6642 12.3736 37.3622 12.1996 37.1042L9.71358 38.7842C10.1856 39.4842 10.8296 40.0342 11.5916 40.5702C12.3476 41.1022 13.3376 41.6962 14.5616 42.4342L16.1076 39.8642ZM12.8776 27.7302C11.8516 28.7382 11.0216 29.5502 10.4076 30.2462C9.78758 30.9462 9.28758 31.6342 8.98758 32.4222L11.7896 33.4902C11.9016 33.1942 12.1296 32.8262 12.6556 32.2322C13.1836 31.6322 13.9236 30.9082 14.9796 29.8682L12.8776 27.7302ZM12.1996 37.1042C11.848 36.5777 11.6274 35.9769 11.5561 35.3479C11.4848 34.7189 11.5648 34.082 11.7896 33.4902L8.98558 32.4222C8.5901 33.4634 8.44982 34.5841 8.57648 35.6907C8.70314 36.7972 9.09306 37.8593 9.71358 38.7842L12.1996 37.1042ZM15.8896 43.2342C17.1136 43.9742 18.0996 44.5682 18.9216 44.9862C19.7456 45.4062 20.5356 45.7182 21.3716 45.7962L21.6516 42.8102C21.3716 42.7842 20.9816 42.6702 20.2816 42.3122C19.5796 41.9542 18.7016 41.4262 17.4376 40.6642L15.8896 43.2342ZM26.1556 36.7142C25.8216 38.1882 25.5856 39.2202 25.3536 40.0022C25.1196 40.7802 24.9276 41.1722 24.7416 41.4162L27.1316 43.2282C27.6396 42.5582 27.9576 41.7662 28.2276 40.8602C28.4956 39.9602 28.7576 38.8102 29.0836 37.3782L26.1556 36.7142ZM21.3716 45.7962C22.471 45.8954 23.5776 45.7115 24.5859 45.262C25.5942 44.8125 26.4705 44.1123 27.1316 43.2282L24.7396 41.4162C24.3874 41.8931 23.9187 42.2716 23.3784 42.5157C22.8381 42.7597 22.2442 42.8611 21.6536 42.8102L21.3716 45.7962ZM35.9376 7.40618L36.2236 7.58018C36.2996 7.62818 36.3456 7.66018 36.3736 7.68018C36.4316 7.72018 36.3496 7.67418 36.2696 7.54618L38.7976 5.93018C38.6192 5.65965 38.3904 5.42605 38.1236 5.24218C37.9316 5.10218 37.6976 4.96218 37.4856 4.83618L35.9376 7.40618ZM38.5976 8.99218C38.7176 8.77618 38.8496 8.53818 38.9476 8.32218C39.0536 8.09018 39.1696 7.77418 39.1876 7.39018L36.1896 7.25418C36.1976 7.10218 36.2436 7.02218 36.2156 7.08618L36.1336 7.24618L35.9736 7.54018L38.5976 8.99218ZM36.2696 7.54618C36.2141 7.45922 36.1848 7.35723 36.1896 7.25418L39.1876 7.39018C39.2113 6.87493 39.0751 6.36496 38.7976 5.93018L36.2696 7.54618ZM34.2356 6.50218L34.4116 6.19018C34.4596 6.10418 34.4916 6.05418 34.5116 6.02218C34.5556 5.95618 34.5116 6.04418 34.3756 6.13418L32.7236 3.63018C32.3836 3.85418 32.1636 4.13618 32.0156 4.35818C31.8776 4.56418 31.7396 4.81818 31.6116 5.05018L34.2356 6.50218ZM35.9256 3.89618C35.6996 3.76018 35.4496 3.60818 35.2256 3.49818C34.9225 3.34029 34.5904 3.2457 34.2496 3.22018L34.0696 6.21618C33.9096 6.20618 33.8256 6.15218 33.8956 6.18818C33.9296 6.20418 33.9816 6.23218 34.0656 6.28218C34.1516 6.33018 34.2476 6.39018 34.3756 6.46618L35.9256 3.89618ZM34.3756 6.13418C34.2849 6.19325 34.1776 6.22333 34.0696 6.21618L34.2496 3.22018C33.71 3.18827 33.1745 3.33213 32.7236 3.63018L34.3756 6.13418ZM21.1956 20.5482C21.3515 19.996 21.481 19.4367 21.5836 18.8722L18.6336 18.3342C18.5474 18.8038 18.4406 19.267 18.3096 19.7262L21.1956 20.5482ZM29.6556 34.8462C29.9756 33.5062 30.4756 32.2322 31.1356 31.0602L28.5176 29.5902C27.7155 31.0202 27.1164 32.5569 26.7376 34.1522L29.6556 34.8462ZM31.1356 31.0602C31.887 29.718 32.8523 28.5074 33.9936 27.4762L31.9856 25.2482C30.6013 26.4966 29.4299 27.9625 28.5176 29.5882L31.1356 31.0602Z" fill="#FF4D03"/>
<path d="M35.4284 18.8601L33.8244 19.3961C32.0844 19.9761 30.1664 19.6341 28.7344 18.4881C27.9276 17.8425 26.9527 17.4416 25.9252 17.3328C24.8977 17.224 23.8605 17.4118 22.9364 17.8741L21.4844 18.6001" stroke="#FF4D03" stroke-width="1.5" stroke-linecap="square"/>
</svg>
